# xmcd
# 
# Track frame offsets:
#     150
#     16661
#     31132
#     50115
#     69745
#     83717
#     95167
#     112630
#     125778
#     136237
#     153783
#     165108
#     180676
#     198643
#     211151
#     225514
#     240768
#     253212
#     267352
# 
# Disc length: 3766
# 
# Revision: 3
# Processed by: cddbd v1.5.2PL0 Copyright (c) Steve Scherf et al.
# Submitted via: fre:ac v1.0.17
# 
DISCID=f30eb413
DTITLE=Randy Travis - Glory Train
DYEAR=2005
DGENRE=Rel
TTITLE0=This Train
TTITLE1=Swing Down Chariot
TTITLE2=Precious Memories
TTITLE3=Shout To The Lord
TTITLE4=Down By The Riverside
TTITLE5=Nothing But The Blood
TTITLE6=Were You There?
TTITLE7=Up Above My Head {I Hear Music In The Air}
TTITLE8=He's Got The Whole World In His Hands
TTITLE9=Heart Of Worship
TTITLE10=Jesus On The Main Line
TTITLE11=Through The Fire
TTITLE12=Here I Am To Worship
TTITLE13=Oh Death
TTITLE14=Nobody Knows, Nobody Cares
TTITLE15=Since Jesus Came Into My Heart
TTITLE16=O How I Love Jesus
TTITLE17=Are You Washed In The Blood
TTITLE18=Precious Lord, Take My Hand
EXTD=YEAR: 2005
EXTT0=
EXTT1=
EXTT2=
EXTT3=
EXTT4=
EXTT5=
EXTT6=
EXTT7=
EXTT8=
EXTT9=
EXTT10=
EXTT11=
EXTT12=
EXTT13=
EXTT14=
EXTT15=
EXTT16=
EXTT17=
EXTT18=
PLAYORDER=
